<?xml version="1.0" encoding="iso-8859-1"?>
<!-- Generator: Adobe Illustrator 19.0.0, SVG Export Plug-In . SVG Version: 6.00 Build 0)  -->
<svg version="1.1" id="Layer_1" xmlns="http://www.w3.org/2000/svg" xmlns:xlink="http://www.w3.org/1999/xlink" x="0px" y="0px"
	 viewBox="0 0 512.002 512.002" style="enable-background:new 0 0 512.002 512.002;" xml:space="preserve">
<path style="fill:#FFB655;" d="M441.888,54.218c-38.661,0-70.116,31.453-70.116,70.115c0,24.916,13.076,46.825,32.716,59.262
	l-43.019,60.224L298.051,180.4c17.027-12.804,28.063-33.17,28.063-56.068c0-38.661-31.453-70.115-70.113-70.115
	c-0.002,0-0.002,0-0.002,0c-38.658,0-70.113,31.453-70.113,70.115c0,22.898,11.035,43.265,28.066,56.068l-63.418,63.418
	l-43.019-60.224c19.639-12.439,32.713-34.346,32.713-59.262c0-38.661-31.452-70.115-70.112-70.115C31.455,54.218,0,85.671,0,124.332
	c0,30.518,19.606,56.531,46.88,66.14v244.076c0,12.832,10.403,23.236,23.236,23.236h185.883h0.002c0.002,0,0.003,0,0.005,0h185.883
	c12.832,0,23.236-10.403,23.236-23.236V190.471c27.271-9.61,46.877-35.622,46.877-66.14C512,85.671,480.548,54.218,441.888,54.218z"
	/>
<path style="fill:#EE8700;" d="M46.88,190.472v244.076c0,12.832,10.403,23.236,23.236,23.236h185.883h0.002V54.218
	c-38.66,0-70.115,31.453-70.115,70.115c0,22.898,11.035,43.265,28.066,56.068l-63.418,63.418l-43.017-60.224
	c19.639-12.439,32.713-34.346,32.713-59.262c-0.002-38.661-31.453-70.115-70.113-70.115C31.455,54.218,0,85.671,0,124.332
	C0,154.85,19.606,180.862,46.88,190.472z"/>
<g>
</g>
<g>
</g>
<g>
</g>
<g>
</g>
<g>
</g>
<g>
</g>
<g>
</g>
<g>
</g>
<g>
</g>
<g>
</g>
<g>
</g>
<g>
</g>
<g>
</g>
<g>
</g>
<g>
</g>
</svg>
