<?xml version="1.0" encoding="iso-8859-1"?>
<!-- Generator: Adobe Illustrator 19.0.0, SVG Export Plug-In . SVG Version: 6.00 Build 0)  -->
<svg version="1.1" id="Layer_1" xmlns="http://www.w3.org/2000/svg" xmlns:xlink="http://www.w3.org/1999/xlink" x="0px" y="0px"
	 viewBox="0 0 512 512" style="enable-background:new 0 0 512 512;" xml:space="preserve">
<path style="fill:#F2D23D;" d="M510.859,196.56c-2.737-8.425-10.02-14.566-18.786-15.839l-148.705-21.609L276.87,24.364
	c-3.921-7.944-12.01-12.974-20.869-12.974c-8.859,0-16.949,5.03-20.869,12.974l-66.499,134.747L19.926,180.721
	c-8.766,1.274-16.05,7.415-18.786,15.839c-2.738,8.425-0.455,17.673,5.888,23.856l107.603,104.887L89.227,473.402
	c-1.497,8.732,2.091,17.555,9.258,22.762c7.168,5.207,16.665,5.894,24.509,1.772l133.005-69.922l133.006,69.922
	c3.404,1.79,7.123,2.673,10.826,2.673c0.028,0,0.056,0,0.082,0c12.833-0.026,23.226-10.437,23.226-23.273
	c0-1.787-0.202-3.528-0.583-5.201l-25.186-146.833l107.603-104.887C511.314,214.233,513.598,204.985,510.859,196.56z"/>
<path style="fill:#EEBF00;" d="M114.63,325.304L89.227,473.402c-1.497,8.732,2.091,17.555,9.258,22.762
	c7.168,5.205,16.665,5.894,24.509,1.772l133.005-69.922V11.39c-8.859,0-16.949,5.03-20.869,12.974L168.63,159.111L19.926,180.721
	c-8.766,1.274-16.05,7.415-18.786,15.839c-2.738,8.425-0.455,17.673,5.888,23.856L114.63,325.304z"/>
<g>
</g>
<g>
</g>
<g>
</g>
<g>
</g>
<g>
</g>
<g>
</g>
<g>
</g>
<g>
</g>
<g>
</g>
<g>
</g>
<g>
</g>
<g>
</g>
<g>
</g>
<g>
</g>
<g>
</g>
</svg>
